<?xml version="1.0" encoding="UTF-8"?>
<svg id="Layer_2" data-name="Layer 2" xmlns="http://www.w3.org/2000/svg" viewBox="0 0 336.26 123.14">
  <defs>
    <style>
      .cls-1 {
        fill: #fff;
      }

      .cls-2 {
        fill: #23243a;
      }

      .cls-3 {
        fill: #2b3449;
      }

      .cls-4 {
        fill: #383d5e;
      }
    </style>
  </defs>
  <g id="Assault_Rifle" data-name="Assault Rifle">
    <g>
      <path class="cls-1" d="M190.55,122.34c-1.15-.28-28.29-7.52-32.25-55.99l-4.8-8.51h-43.06l-8.88,45.48-.46,.4-1.71,.09c-1.39,.07-2.78,.11-4.13,.11-18.72,0-26.07-7.16-26.38-7.46l-1.14-1.14-.09-.59,20.69-39.2c-2.79-3.02-11.59-11.49-22.28-11.49-.7,0-1.42,.04-2.11,.11l-2.41,.25-.55-.5v-3.28h-4.45L2.68,69.02l-.69-.24-.95-2.16C-.72,62.6,2.2,24.19,3.53,7.86l.16-1.92,.48-.46,1.93-.08c1.02-.04,10.22-.42,21.78-.42,13.51,0,24.64,.49,33.11,1.46v-2.12l.47-.5,2.04-.14c.46-.03,47.14-3.18,96.27-3.18,16.63,0,31.86,.36,45.26,1.06l2.07,.11,.47,.5v.71l2.57-2.26,.33-.12h77.86l.5,.5V9.96h7.47l3.48-2.34,.32-.08,35.2,2.58,.46,.5V28.47l-.47,.5-35.05,1.84-.24-.05-3.48-1.68h-7.68v9.06l-.5,.5h-76.69l-.4-.19-4.19-5.42-9.34,7.53v13.5l-.06,.24-6.43,11.79c.49,3.65,3.49,20.4,18.6,33.08l1.75,1.47,.05,.72-19.32,21.15-.49,.15-1.26-.31ZM15.02,23.9c-2.66,14.78-3.28,22.67-3.28,26.8l31.38-18.44v-14.93H22.53l-1.58,6.19-.48,.38h-5.45Z"/>
      <path class="cls-1" d="M288.33,1V10.46h8.12l3.6-2.43,35.2,2.58V28.47l-35.05,1.84-3.58-1.73h-8.29v9.56h-76.69l-4.58-5.92v.16l-9.85,7.94v13.74l-6.51,11.93c.44,3.42,3.34,20.59,18.79,33.56l1.75,1.47-19.32,21.15-1.26-.31c-1.14-.28-27.98-7.46-31.88-55.65l-5-8.86h-43.76l-8.96,45.88-1.71,.09c-1.39,.07-2.77,.11-4.1,.11-18.49,0-25.72-7.02-26.02-7.32l-1.14-1.14,20.85-39.51c-2.8-3.09-11.78-11.91-22.89-11.91-.72,0-1.45,.04-2.17,.11l-2.41,.25v-3.78h-5.07L2.45,68.58l-.94-2.16c-1.19-2.72-.25-24.59,2.52-58.52l.16-1.93,1.93-.08c.1,0,9.7-.41,21.76-.41,13.8,0,25.09,.51,33.61,1.52v-2.68l2.04-.14c.46-.03,46.99-3.18,96.24-3.18,16.62,0,31.84,.36,45.23,1.06l2.07,.11v1.64h.2l3.2-2.81h77.86M11.25,51.57l32.37-19.02v-15.71H22.14l-1.67,6.57h-5.87c-2.99,16.54-3.43,24.53-3.35,28.17M288.33,0h-77.86l-.66,.25-1.94,1.71-.75-.79-2.07-.11c-13.41-.71-28.65-1.06-45.28-1.06C110.84,0,63.92,3.15,63.46,3.18l-2.04,.14-.93,1v1.56c-8.42-.93-19.38-1.4-32.61-1.4-12.05,0-21.71,.41-21.8,.42l-1.93,.08-.95,.92-.16,1.93C1.37,28.15-1.15,62.85,.59,66.83l.95,2.16,1.38,.48,53.74-28.36h3.83v2.78l1.1,.99,2.41-.25c.68-.07,1.37-.11,2.06-.11,10.2,0,18.68,7.9,21.67,11.07l-20.52,38.89,.18,1.17,1.14,1.14c.31,.31,7.81,7.61,26.73,7.61,1.34,0,2.74-.04,4.15-.11l1.71-.09,.93-.81,8.8-45.07h42.35l4.6,8.16c4.02,48.72,31.45,56.04,32.62,56.32l1.26,.31,.98-.3,19.32-21.15-.09-1.44-1.75-1.47c-14.75-12.38-17.85-28.68-18.4-32.6l6.35-11.64,.12-.48v-13.26l8.76-7.06,3.88,5.02,.79,.39h76.69l1-1v-8.56h7.06l3.38,1.63,.49,.1,35.05-1.84,.95-1V10.61l-.93-1-35.2-2.58-.63,.17-3.35,2.26h-6.82V1l-1-1h0ZM22.92,17.84h19.71v14.14L12.25,49.83c.08-4.27,.77-11.92,3.19-25.42h5.03l.97-.75,1.48-5.81h0Z"/>
    </g>
    <g>
      <g>
        <path class="cls-3" d="M63.67,41.46V6.36S142.49,.96,204.88,4.25V31.33l-9.85,7.94v14.23l-6.57,12.04h-27.52l-5.86-10.4h-63.49s-12.04-15.32-27.91-13.68Z"/>
        <polygon class="cls-3" points="208.1 6 211.29 3.19 286.14 3.19 286.14 35.95 212.72 35.95 208.1 29.97 208.1 6"/>
      </g>
      <g>
        <path class="cls-2" d="M6.21,8.08C1.83,61.71,3.51,65.55,3.51,65.55l52.36-27.63h7.81V9.49c-21.34-2.97-57.47-1.41-57.47-1.41Zm39.6,25.72L9.49,55.15s-2.19-4.38,3.28-33.93h5.99l1.67-6.57h25.37v19.16Z"/>
        <path class="cls-2" d="M91.59,55.15l-20.8,39.41s7.66,7.66,28.46,6.57l8.98-45.97h-16.64Z"/>
        <path class="cls-2" d="M188.46,65.55s1.51,20.46,19.64,35.68l-16.9,18.5s-26.58-6.57-30.26-54.18h27.52Z"/>
        <rect class="cls-2" x="204.88" y="6" width="3.22" height="23.97"/>
        <path class="cls-2" d="M134.28,37.96v9.44h53.63v-14.87l8.76-3.65V12.65h-37.22s2.19,26.73-25.18,25.31Z"/>
        <polygon class="cls-2" points="110.19 14.65 110.19 23.66 73.35 23.66 73.35 15.74 110.19 14.65"/>
        <rect class="cls-2" x="286.14" y="12.65" width="10.98" height="13.75"/>
      </g>
      <polygon class="cls-4" points="300.65 10.27 297.12 12.65 297.12 26.4 300.65 28.1 333.07 26.4 333.07 12.65 300.65 10.27"/>
    </g>
  </g>
</svg>