<?xml version="1.0" encoding="UTF-8"?>
<svg id="Layer_2" data-name="Layer 2" xmlns="http://www.w3.org/2000/svg" viewBox="0 0 117.15 80.52">
  <defs>
    <style>
      .cls-1 {
        fill: #fff;
      }

      .cls-2 {
        fill: #7f514b;
      }

      .cls-3 {
        fill: #66362d;
      }

      .cls-4 {
        fill: #936c65;
      }

      .cls-5 {
        fill: #7a5248;
      }
    </style>
  </defs>
  <g id="Dual_Pistol" data-name="Dual Pistol">
    <g>
      <path class="cls-1" d="M23.56,80.02c-3.93,0-6.69-1.68-8.06-2.76-8.01-.53-12.42-4.2-12.6-4.36l-.87-.74-.17-.47,4.51-25.99c-4.81-1.97-5.76-6.18-5.8-6.36l-.07-.33v-.17S4.32,6.65,4.32,6.65l.04-.16,.14-.29c1.46-3.07,3.7-3.53,4.91-3.53,1.83,0,3.42,.97,4.52,1.9l4.02-3.45,.33-.12h6.63c1.51,0,2.77,1.07,3.06,2.5h3.23c.07-1.67,1.44-3,3.12-3h8.57c1.68,0,3.06,1.33,3.12,3h3.18c.15-1.58,1.49-2.82,3.11-2.82,.26,0,.52,.03,.78,.1l8.57,2.18,.38,.48v.05h26.05c.7-1.24,2-2,3.45-2h14l.5,.5V6.61l5.67,1.33,.39,.5v.41s4.08,0,4.08,0l.5,.5v12.31l-.5,.5h-4.53l-.64,19.19-.3,.44-4.34,1.87c-.2,1.46-.38,2.11-.43,2.29l-.32,1.02-.33,.33-1.02,.31c-7.8,2.34-15.88,3.53-24.03,3.53-7.51,0-13.46-1.01-17.12-1.85-1.53-.35-2.74-1.45-3.23-2.94-.04-.13-.08-.25-.11-.38-6.49-.47-12.59-1.27-18.14-2.39-.37,.39-.79,.73-1.26,1l-.68,.39c.84,.61,1.38,1.06,1.45,1.12l.87,.72,.17,.46-.17,1.12c-2.04,13.25-9.93,28.17-10.26,28.8l-.3,.56-.22,.21-.57,.29c-2.37,1.18-4.75,1.78-7.08,1.78Z"/>
      <path class="cls-1" d="M42.89,1c1.45,0,2.63,1.18,2.63,2.63v.37h4.16v-.19c0-1.45,1.18-2.63,2.62-2.63,.22,0,.44,.03,.65,.08l8.57,2.18v.55h26.86c.57-1.22,1.78-2,3.14-2h14V7l6.05,1.42-.03,.92h4.61v12.31h-5.02l-.66,19.67-4.6,1.98c-.21,1.66-.41,2.34-.45,2.48l-.32,1.02-1.02,.31c-7.75,2.33-15.79,3.51-23.89,3.51-7.47,0-13.37-1-17-1.84-1.36-.31-2.43-1.29-2.87-2.61-.08-.23-.13-.46-.17-.69-6.73-.47-13.02-1.3-18.74-2.46-.37,.44-.82,.82-1.33,1.11l-1.35,.78c1.21,.85,2,1.51,2.05,1.55l.87,.72-.17,1.12c-2.03,13.19-9.88,28.01-10.21,28.64l-.3,.56-.57,.29c-2.3,1.15-4.6,1.73-6.85,1.73-3.97,0-6.72-1.81-7.87-2.75-7.95-.48-12.28-4.09-12.47-4.25l-.87-.74,4.58-26.39c-4.87-1.8-5.83-5.95-5.87-6.15l-.07-.33L4.81,6.71l.14-.3c1.34-2.82,3.37-3.24,4.46-3.24,1.92,0,3.59,1.21,4.52,2.06l4.35-3.73h6.63c1.41,0,2.56,1.11,2.62,2.5h4.16v-.37c0-1.45,1.18-2.63,2.63-2.63h8.57m0-1h-8.57c-1.79,0-3.27,1.3-3.57,3h-2.39c-.47-1.46-1.84-2.5-3.45-2.5h-6.63l-.65,.24-3.7,3.18c-1.15-.89-2.71-1.75-4.51-1.75-1.33,0-3.79,.5-5.36,3.82l-.14,.3-.09,.31L0,38.79l.02,.33,.07,.33c.04,.19,1,4.43,5.73,6.56L1.37,71.61l.34,.93,.87,.74c.19,.16,4.67,3.89,12.74,4.46,1.46,1.12,4.29,2.77,8.25,2.77,2.41,0,4.86-.62,7.3-1.84l.57-.29,.44-.42,.3-.56c.34-.63,8.27-15.63,10.32-28.96l.17-1.12-.35-.92-.87-.72c-.05-.04-.36-.3-.86-.68h.02c.43-.26,.82-.56,1.18-.9,5.4,1.07,11.31,1.85,17.59,2.32,0,.02,.01,.04,.02,.06,.55,1.66,1.9,2.88,3.6,3.27,3.69,.85,9.67,1.86,17.23,1.86,8.2,0,16.33-1.19,24.18-3.55l1.02-.31,.67-.66,.32-1.02c.07-.22,.23-.82,.41-2.09l4.08-1.76,.6-.89,.62-18.7h4.05l1-1V9.35l-1-1h-3.66l-.69-.9-5.28-1.24V2l-1-1h-14c-1.53,0-2.91,.75-3.73,2h-25.62l-.41-.52L53.2,.29c-.29-.07-.59-.11-.9-.11-1.72,0-3.17,1.21-3.53,2.82h-2.3c-.3-1.7-1.79-3-3.57-3h0Z"/>
    </g>
    <g>
      <rect class="cls-3" x="108.52" y="11.35" width="5.63" height="8.31"/>
      <polygon class="cls-5" points="23.52 6 92.52 6 109.52 10 108.52 40 101.7 42.94 44.52 30 16.52 14 23.52 6"/>
      <path class="cls-4" d="M12.02,9.5l7-6h5.89c.35,0,.63,.28,.63,.63v6.9c0,.35,.28,.63,.63,.63h6.91c.35,0,.63-.28,.63-.63V3.63c0-.35,.28-.63,.63-.63h8.57c.35,0,.63,.28,.63,.63v7.4c0,.35,.28,.63,.63,.63h6.91c.35,0,.63-.28,.63-.63V3.81c0-.41,.38-.71,.78-.61l7.06,1.8v6.03c0,.35,.28,.63,.63,.63h27.37l2.63-6.72c.22-.56,.76-.93,1.37-.93h12V42s-33,5-62-1L11.52,30l.5-20.5Z"/>
      <path class="cls-2" d="M73.95,30.65l-11.34,12.96c-.99,1.13-.42,2.9,1.04,3.24,6.34,1.46,21.67,3.83,39.87-1.64,0,0,1-3.2,1-16.2l-29.14,.97c-.55,.02-1.06,.26-1.43,.68Z"/>
      <path class="cls-2" d="M6.76,7.27l-3.74,31.54s.89,4.09,6.2,5.14l-4.69,27.05s7,6,20,3l11-24,.9-6.05,2.68-1.55c1.37-.79,1.9-2.5,1.22-3.93l-3.87-8.13c-.4-.84-1.17-1.45-2.08-1.66l-16.76-3.75c-1.23-.28-2.17-1.29-2.34-2.54l-2.13-15.11s-4.14-4.73-6.38,0Z"/>
      <path class="cls-4" d="M29.52,43l-13,31.84s5,5.16,13,1.16c0,0,8-15,10-28,0,0-6-5-10-5Z"/>
    </g>
  </g>
</svg>