<?xml version="1.0" encoding="UTF-8"?>
<svg id="Layer_2" data-name="Layer 2" xmlns="http://www.w3.org/2000/svg" viewBox="0 0 205 211.3">
  <defs>
    <style>
      .cls-1 {
        fill: #eda4d7;
      }

      .cls-2 {
        fill: #fff;
      }

      .cls-3 {
        fill: #a6c0cc;
      }

      .cls-4 {
        fill: #c1639d;
      }

      .cls-5 {
        fill: #77849e;
      }
    </style>
  </defs>
  <g id="Shield">
    <g>
      <path class="cls-2" d="M107.5,210.8c-1.63,0-3.27-.04-4.88-.11-1.6,.07-3.13,.11-4.62,.11-27.75,0-52.77-10.55-70.46-29.71C10.1,162.22,.5,135.83,.5,106.8c0-31.1,7.82-55.83,23.25-73.53C40.59,13.96,66.53,3.03,100.84,.81c3.13-.2,6.23-.31,9.23-.31,22.92,0,41.57,6.06,55.42,18.01,25.51,17.2,39.02,47.74,39.02,88.29,0,57.35-43.51,104-97,104Z"/>
      <path class="cls-2" d="M110.06,1c22.8,0,41.33,6.02,55.09,17.89,25.41,17.14,38.84,47.54,38.84,87.92,0,57.07-43.29,103.5-96.5,103.5-1.61,0-3.25-.04-4.85-.11-1.65,.07-3.17,.11-4.65,.11-27.61,0-52.5-10.49-70.09-29.54C10.56,161.97,1,135.71,1,106.8c0-30.97,7.78-55.6,23.13-73.2C40.88,14.39,66.7,3.52,100.87,1.31c3.12-.2,6.22-.31,9.19-.31m0-1c-3,0-6.12,.1-9.26,.31C66.35,2.54,40.3,13.52,23.37,32.94,7.86,50.73,0,75.58,0,106.8c0,29.16,9.65,55.66,27.17,74.63,17.79,19.26,42.94,29.87,70.83,29.87,1.49,0,3.01-.03,4.65-.1,1.6,.07,3.23,.1,4.85,.1,53.76,0,97.5-46.88,97.5-104.5,0-40.7-13.57-71.37-39.23-88.71C151.82,6.09,133.08,0,110.06,0h0Z"/>
    </g>
    <g>
      <path class="cls-5" d="M198,105.3c0,58.27-43.67,103-100,103S3,165.07,3,106.8,30.69,7.87,101,3.3c38.5-2.5,56.69,11.13,65.5,19.5,27.9,26.52,31.5,40.62,31.5,82.5Z"/>
      <ellipse class="cls-1" cx="109.5" cy="106.3" rx="84" ry="93.5"/>
      <path class="cls-4" d="M114,100.8V22.3S24,30.8,30,119.3l84-5.48v-13.02Z"/>
      <path class="cls-4" d="M114,119.3v74s87,17,76-96l-73,11.87-3,10.13Z"/>
      <path class="cls-5" d="M116.39,190.44s68.11-6.64,65.61-93.14c0,0-.5-60.5-56.5-70.5l-2.5-9.5s65.92,11.39,65.96,82.69-44.11,98.31-71.04,96.31l-1.53-5.86Z"/>
      <path class="cls-3" d="M107.5,5.3C55.31,5.3,13,50.74,13,106.8c0,64.5,42.31,101.5,94.5,101.5s94.5-45.44,94.5-101.5c0-59.5-30-101.5-94.5-101.5Zm2,186c-42.16,2.78-76.5-36.71-76.5-82S67.4,30.9,109.5,27.3c58.5-5,76.5,36.71,76.5,82s-31,79-76.5,82Z"/>
      <g>
        <ellipse class="cls-5" cx="102" cy="18.8" rx="6" ry="5.5"/>
        <ellipse class="cls-5" cx="137.5" cy="18.3" rx="5.5" ry="5"/>
        <circle class="cls-5" cx="166" cy="32.3" r="5"/>
        <circle class="cls-5" cx="184" cy="56.3" r="5"/>
        <circle class="cls-5" cx="194" cy="87.3" r="5"/>
        <circle class="cls-5" cx="194.5" cy="121.8" r="4.5"/>
        <circle class="cls-5" cx="179.5" cy="160.8" r="4.5"/>
        <circle class="cls-5" cx="148.5" cy="188.8" r="4.5"/>
        <circle class="cls-5" cx="112.5" cy="199.8" r="4.5"/>
        <circle class="cls-5" cx="72.5" cy="192.8" r="4.5"/>
        <ellipse class="cls-5" cx="44.5" cy="172.3" rx="5.5" ry="5"/>
        <circle class="cls-5" cx="28" cy="141.3" r="5"/>
        <circle class="cls-5" cx="23" cy="112.3" r="5"/>
        <circle class="cls-5" cx="24.5" cy="83.8" r="5.5"/>
        <circle class="cls-5" cx="38.5" cy="55.8" r="5.5"/>
        <circle class="cls-5" cx="66" cy="29.3" r="6"/>
      </g>
      <path class="cls-5" d="M103,111.3c0,7.73,5,14,10,14,6.63,0,12-6.27,12-14s-5.37-14-12-14c-5,0-10,6.27-10,14Z"/>
    </g>
  </g>
</svg>