<?xml version="1.0" encoding="UTF-8"?>
<svg id="Layer_2" data-name="Layer 2" xmlns="http://www.w3.org/2000/svg" viewBox="0 0 331.05 58.8">
  <defs>
    <style>
      .cls-1 {
        fill: #fff;
      }

      .cls-2 {
        fill: #23243a;
      }

      .cls-3 {
        fill: #2b3449;
      }

      .cls-4 {
        fill: #383d5e;
      }

      .cls-5 {
        fill: #846040;
      }

      .cls-6 {
        fill: none;
        stroke: #23243a;
        stroke-linecap: round;
        stroke-miterlimit: 10;
        stroke-width: 2px;
      }
    </style>
  </defs>
  <g id="Shotgun">
    <g>
      <path class="cls-1" d="M104.68,58.3c-9.69,0-17.59-5.44-17.92-5.67l-1.23-.86-.19-.57,2.53-7.47c-3.03,.5-11.75,2.22-18.53,6.44-.72,2.3-2.36,5.93-5.58,5.93-2.81,0-4.92-2.54-7.02-8.46-1.59-.06-4.03-.12-7.11-.12-9.01,0-26.55,.58-42.86,4.5l-2.25,.54-.61-.44L.5,14.63l.5-.54H3.19c1.65,0,40.64,.06,52.96,5.19l.42,.18,.18,.13,.3,.34c1.6,1.79,6.7,6.45,11.01,6.45,.47,0,.93-.06,1.35-.17l19.59-7.84c2.54-1.7,23.5-15.3,44.06-16.28L171.28,.5l.52,.5V3.01h128.88V1.08l.5-.5h12.62l.5,.5v1.93h11.01c2.89,0,5.24,2.35,5.24,5.24v8.13c0,.97-.27,1.91-.78,2.74,.51,.83,.78,1.77,.78,2.74v8.35c0,2.89-2.35,5.24-5.24,5.24h-11.01v1.56l-.5,.5h-12.62l-.5-.5v-1.56h-26.93l-.16,3.53-.5,.48h-59.91l-.5-.5v-3.51h-.38c-8.49,8.11-21.15,9.81-30.29,9.81-4.19,0-7.78-.35-10.21-.67v1.34l-.46,.5-1.85,.14c-1.67,.12-16.62,1.14-34.15,1.14-3.64,0-7.19-.04-10.55-.13-5.31,7.11-12.08,10.71-20.1,10.71Zm-5.32-10.91c.97,.35,2.36,.7,4.09,.7s3.6-.36,5.45-1.06l-9.08-.79-.46,1.15Z"/>
      <path class="cls-1" d="M171.3,1V3.51h129.88V1.08h12.62V3.51h11.51c2.61,0,4.74,2.13,4.74,4.74v8.13c0,1.01-.33,1.96-.88,2.74,.56,.78,.88,1.73,.88,2.74v8.35c0,2.61-2.13,4.74-4.74,4.74h-11.51v2.06h-12.62v-2.06h-27.91l-.18,4.01h-59.91v-4.01h-1.08c-8.35,8.09-20.92,9.81-30.09,9.81-4.55,0-8.38-.41-10.71-.74v1.92l-1.85,.14c-.16,.01-15.81,1.14-34.11,1.14-3.73,0-7.36-.05-10.8-.14-5.24,7.12-11.91,10.72-19.86,10.72-9.54,0-17.31-5.35-17.64-5.58l-1.23-.86,2.79-8.23s-.03,0-.04,0c-2.03,.29-12.06,1.94-19.65,6.73-.6,2-2.13,5.75-5.15,5.75-2.58,0-4.61-2.54-6.66-8.45-1.47-.06-4.07-.14-7.47-.14-9.03,0-26.62,.59-42.98,4.51l-2.25,.54L1,14.58H3.19c1.65,0,40.54,.06,52.77,5.15l.42,.18,.3,.34c1.64,1.84,6.89,6.62,11.38,6.62,.51,0,1.01-.06,1.48-.19l19.7-7.88c2.34-1.57,23.31-15.24,43.85-16.22l38.21-1.59M103.45,48.59c2.42,0,4.91-.63,7.45-1.89l-11.4-1-.79,1.96c1.04,.44,2.67,.92,4.74,.92M171.26,0l-38.21,1.59c-20.58,.98-41.53,14.5-44.27,16.33l-19.54,7.82c-.37,.09-.76,.14-1.17,.14-4.11,0-9.18-4.65-10.64-6.28l-.3-.34-.36-.26-.42-.18C43.93,13.64,4.84,13.58,3.19,13.58H1l-1,1.09L3.41,52.16l1.23,.88,2.25-.54c16.25-3.9,33.76-4.48,42.74-4.48,2.87,0,5.17,.06,6.75,.11,2.15,5.93,4.38,8.47,7.38,8.47,3.45,0,5.21-3.67,6-6.1,6.14-3.77,13.85-5.5,17.37-6.13l-2.26,6.68,.37,1.14,1.23,.86c.34,.24,8.37,5.76,18.21,5.76,8.12,0,14.96-3.6,20.35-10.71,3.29,.08,6.76,.13,10.31,.13,17.54,0,32.51-1.03,34.16-1.14l1.88-.14,.93-1v-.78c2.42,.3,5.8,.6,9.71,.6,9.07,0,21.57-1.67,30.18-9.52v2.71l1,1h59.91l1-.96,.14-3.05h25.95v1.06l1,1h12.62l1-1v-1.06h10.51c3.16,0,5.74-2.57,5.74-5.74v-8.35c0-.97-.24-1.9-.7-2.74,.46-.84,.7-1.77,.7-2.74V8.25c0-3.17-2.57-5.74-5.74-5.74h-10.51V1.08l-1-1h-12.62l-1,1v1.43h-127.88V1l-1.04-1h0ZM100.02,47.08l.13-.32,6.08,.53c-.94,.19-1.87,.29-2.78,.29-1.38,0-2.54-.23-3.43-.51h0Z"/>
    </g>
    <g>
      <rect class="cls-3" x="169.3" y="5.51" width="133.88" height="13.61"/>
      <rect class="cls-3" x="169.3" y="19.12" width="133.88" height="13.83"/>
      <path class="cls-3" d="M325.32,5.51h-13.51v13.61h13.51c1.51,0,2.74-1.23,2.74-2.74V8.25c0-1.51-1.23-2.74-2.74-2.74Z"/>
      <path class="cls-3" d="M325.32,32.95h-13.51v-13.83h13.51c1.51,0,2.74,1.23,2.74,2.74v8.35c0,1.51-1.23,2.74-2.74,2.74Z"/>
      <line class="cls-6" x1="169.3" y1="19.12" x2="324.69" y2="19.12"/>
      <rect class="cls-4" x="303.19" y="3.08" width="8.62" height="31.93"/>
      <path class="cls-4" d="M169.3,3.08V44.08s-54.62,4-80.62-3l1.5-20.5s22-15,43-16l36.12-1.5Z"/>
      <path class="cls-5" d="M6.19,49.58L3.19,16.58s40,0,52,5c0,0,8,9,15,7l20-8-1.5,20.5s-12.5,1.5-21.5,7.5c0,0-3.25,13.28-8.63-3.36,0,0-27.37-1.64-52.37,4.36Z"/>
      <path class="cls-2" d="M169.3,41.67s28.06,5.65,41.97-8.72h-41.97v8.72Z"/>
      <path class="cls-5" d="M215.19,25.58v11.37h56l1-22.37-32,1s-4,16-25,10Z"/>
      <path class="cls-2" d="M135.19,38.58l26.24-.73V11.08s-16.24-3.64-26.24,8.93v18.57Z"/>
      <rect class="cls-2" x="104.19" y="31.19" width="23.22" height="7.4"/>
      <path class="cls-4" d="M91.51,40.78l-3.32,9.81s21.84,15.28,35.92-6.36c0,0-26.27-1.25-32.6-3.45Zm4.68,7.81l2-5,18.71,1.64c-12.29,9.64-20.71,3.36-20.71,3.36Z"/>
    </g>
  </g>
</svg>