<?xml version="1.0" encoding="UTF-8"?>
<svg id="Layer_2" data-name="Layer 2" xmlns="http://www.w3.org/2000/svg" xmlns:xlink="http://www.w3.org/1999/xlink" viewBox="0 0 455.35 480.84">
  <defs>
    <style>
      .cls-1 {
        letter-spacing: .05em;
      }

      .cls-2 {
        letter-spacing: .05em;
      }

      .cls-3 {
        fill: #fff;
      }

      .cls-4 {
        fill: #efc643;
      }

      .cls-5 {
        fill: #23243a;
      }

      .cls-6 {
        fill: #2b3449;
      }

      .cls-7 {
        fill: #383d5e;
      }

      .cls-8 {
        fill: #846040;
      }

      .cls-9 {
        letter-spacing: .04em;
      }

      .cls-10 {
        fill: none;
        stroke: #23243a;
        stroke-linecap: round;
        stroke-miterlimit: 10;
        stroke-width: 2px;
      }

      .cls-11 {
        letter-spacing: .06em;
      }

      .cls-12 {
        fill: url(#radial-gradient);
        opacity: .25;
      }

      .cls-13 {
        letter-spacing: 0em;
      }

      .cls-14 {
        font-family: MarkerFelt-Wide, 'Marker Felt';
        font-size: 36px;
      }
    </style>
    <radialGradient id="radial-gradient" cx="235.85" cy="455.94" fx="235.85" fy="455.94" r="187.66" gradientTransform="translate(0 403.23) scale(1 .12)" gradientUnits="userSpaceOnUse">
      <stop offset="0" stop-color="#0a0b0e"/>
      <stop offset=".88" stop-color="#000" stop-opacity="0"/>
    </radialGradient>
  </defs>
  <g id="Character">
    <ellipse class="cls-12" cx="235.85" cy="455.94" rx="219.5" ry="24.9"/>
    <rect class="cls-4" x="124.35" y="98.94" width="236" height="356"/>
  </g>
  <g id="Shotgun">
    <g>
      <path class="cls-3" d="M217.34,324.15c-9.69,0-17.59-5.44-17.92-5.67l-1.23-.86-.19-.57,2.53-7.47c-3.03,.5-11.75,2.22-18.53,6.44-.72,2.3-2.36,5.93-5.58,5.93-2.81,0-4.92-2.54-7.02-8.46-1.59-.06-4.03-.12-7.11-.12-9.01,0-26.55,.58-42.86,4.5l-2.25,.54-.61-.44-3.41-37.48,.5-.54h2.19c1.65,0,40.64,.06,52.96,5.19l.42,.18,.18,.13,.3,.34c1.6,1.79,6.7,6.45,11.01,6.45,.47,0,.93-.06,1.35-.17l19.59-7.84c2.54-1.7,23.5-15.3,44.06-16.28l38.22-1.59,.52,.5v2.01h128.88v-1.93l.5-.5h12.62l.5,.5v1.93h11.01c2.89,0,5.24,2.35,5.24,5.24v8.13c0,.97-.27,1.91-.78,2.74,.51,.83,.78,1.77,.78,2.74v8.35c0,2.89-2.35,5.24-5.24,5.24h-11.01v1.56l-.5,.5h-12.62l-.5-.5v-1.56h-26.93l-.16,3.53-.5,.48h-59.91l-.5-.5v-3.51h-.38c-8.49,8.11-21.15,9.81-30.29,9.81-4.19,0-7.78-.35-10.21-.67v1.34l-.46,.5-1.85,.14c-1.67,.12-16.62,1.14-34.15,1.14-3.64,0-7.19-.04-10.55-.13-5.31,7.11-12.08,10.71-20.1,10.71Zm-5.32-10.91c.97,.35,2.36,.7,4.09,.7s3.6-.36,5.45-1.06l-9.08-.79-.46,1.15Z"/>
      <path class="cls-3" d="M283.97,266.85v2.51h129.88v-2.43h12.62v2.43h11.51c2.61,0,4.74,2.13,4.74,4.74v8.13c0,1.01-.33,1.96-.88,2.74,.56,.78,.88,1.73,.88,2.74v8.35c0,2.61-2.13,4.74-4.74,4.74h-11.51v2.06h-12.62v-2.06h-27.91l-.18,4.01h-59.91v-4.01h-1.08c-8.35,8.09-20.92,9.81-30.09,9.81-4.55,0-8.38-.41-10.71-.74v1.92l-1.85,.14c-.16,.01-15.81,1.14-34.11,1.14-3.73,0-7.36-.05-10.8-.14-5.24,7.12-11.91,10.72-19.86,10.72-9.54,0-17.31-5.35-17.64-5.58l-1.23-.86,2.79-8.23s-.03,0-.04,0c-2.03,.29-12.06,1.94-19.65,6.73-.6,2-2.13,5.75-5.15,5.75-2.58,0-4.61-2.54-6.66-8.45-1.47-.06-4.07-.14-7.47-.14-9.03,0-26.62,.59-42.98,4.51l-2.25,.54-3.41-37.48h2.19c1.65,0,40.54,.06,52.77,5.15l.42,.18,.3,.34c1.64,1.84,6.89,6.62,11.38,6.62,.51,0,1.01-.06,1.48-.19l19.7-7.88c2.34-1.57,23.31-15.24,43.85-16.22l38.21-1.59m-67.86,47.59c2.42,0,4.91-.63,7.45-1.89l-11.4-1-.79,1.96c1.04,.44,2.67,.92,4.74,.92m67.82-48.59l-38.21,1.59c-20.58,.98-41.53,14.5-44.27,16.33l-19.54,7.82c-.37,.09-.76,.14-1.17,.14-4.11,0-9.18-4.65-10.64-6.28l-.3-.34-.36-.26-.42-.18c-12.41-5.17-51.5-5.23-53.15-5.23h-2.19l-1,1.09,3.41,37.48,1.23,.88,2.25-.54c16.25-3.9,33.76-4.48,42.74-4.48,2.87,0,5.17,.06,6.75,.11,2.15,5.93,4.38,8.47,7.38,8.47,3.45,0,5.21-3.67,6-6.1,6.14-3.77,13.85-5.5,17.37-6.13l-2.26,6.68,.37,1.14,1.23,.86c.34,.24,8.37,5.76,18.21,5.76,8.12,0,14.96-3.6,20.35-10.71,3.29,.08,6.76,.13,10.31,.13,17.54,0,32.51-1.03,34.16-1.14l1.88-.14,.93-1v-.78c2.42,.3,5.8,.6,9.71,.6,9.07,0,21.57-1.67,30.18-9.52v2.71l1,1h59.91l1-.96,.14-3.05h25.95v1.06l1,1h12.62l1-1v-1.06h10.51c3.16,0,5.74-2.57,5.74-5.74v-8.35c0-.97-.24-1.9-.7-2.74,.46-.84,.7-1.77,.7-2.74v-8.13c0-3.17-2.57-5.74-5.74-5.74h-10.51v-1.43l-1-1h-12.62l-1,1v1.43h-127.88v-1.51l-1.04-1h0Zm-71.25,47.08l.13-.32,6.08,.53c-.94,.19-1.87,.29-2.78,.29-1.38,0-2.54-.23-3.43-.51h0Z"/>
    </g>
    <g>
      <rect class="cls-6" x="281.97" y="271.36" width="133.88" height="13.61"/>
      <rect class="cls-6" x="281.97" y="284.97" width="133.88" height="13.83"/>
      <path class="cls-6" d="M437.98,271.36h-13.51v13.61h13.51c1.51,0,2.74-1.23,2.74-2.74v-8.13c0-1.51-1.23-2.74-2.74-2.74Z"/>
      <path class="cls-6" d="M437.98,298.8h-13.51v-13.83h13.51c1.51,0,2.74,1.23,2.74,2.74v8.35c0,1.51-1.23,2.74-2.74,2.74Z"/>
      <line class="cls-10" x1="281.97" y1="284.97" x2="437.35" y2="284.97"/>
      <rect class="cls-7" x="415.85" y="268.94" width="8.62" height="31.93"/>
      <path class="cls-7" d="M281.97,268.94v41s-54.62,4-80.62-3l1.5-20.5s22-15,43-16l36.12-1.5Z"/>
      <path class="cls-8" d="M118.85,315.44l-3-33s40,0,52,5c0,0,8,9,15,7l20-8-1.5,20.5s-12.5,1.5-21.5,7.5c0,0-3.25,13.28-8.63-3.36,0,0-27.37-1.64-52.37,4.36Z"/>
      <path class="cls-5" d="M281.97,307.52s28.06,5.65,41.97-8.72h-41.97v8.72Z"/>
      <path class="cls-8" d="M327.85,291.44v11.37h56l1-22.37-32,1s-4,16-25,10Z"/>
      <path class="cls-5" d="M247.85,304.44l26.24-.73v-26.77s-16.24-3.64-26.24,8.93v18.57Z"/>
      <rect class="cls-5" x="216.85" y="297.04" width="23.22" height="7.4"/>
      <path class="cls-7" d="M204.17,306.63l-3.32,9.81s21.84,15.28,35.92-6.36c0,0-26.27-1.25-32.6-3.45Zm4.68,7.81l2-5,18.71,1.64c-12.29,9.64-20.71,3.36-20.71,3.36Z"/>
    </g>
  </g>
  <g id="UI">
    <path d="M7.47,33.04C15.69,22.49,27.12,14.71,39.92,10.85c6.43-1.94,12.94-2.88,19.66-2.73,6.14,.14,13.08,1.1,17.33,5.98s4.06,11.9,3.88,17.91c-.09,3.07-.21,5.31-.99,8.15-.42,1.52-.63,2.15-1.43,3.45-.5,.82-1.18,1.54-1.9,1.95-.64,.37-1.74,.66-2.58,.5-1.26-.24-2.25-.88-3.17-1.84-2.1-2.21-2.35-5.64-1.66-8.74,1.38-6.2,5.21-12.84,11.31-15.33s13.49-1.02,19.77,.93c3.06,.95,6.27,2.06,9.03,3.32s5.32,2.69,7.28,4.98c.66,.77,1.3,2.02,1.61,3.1,1.07,3.7,6.86,2.13,5.79-1.6-2.19-7.56-9.7-11.13-16.5-13.67-7.59-2.83-15.75-5.21-23.92-4.05s-14.53,6.98-17.92,14.43c-1.92,4.22-3.25,8.76-2.59,13.42,.57,4.05,3,7.94,6.71,9.83,3.52,1.79,7.71,1.62,10.89-.81,2.71-2.07,4.25-5.21,5.12-8.45s1.09-6.76,1.18-10.17c.1-3.93-.03-7.91-.87-11.76s-2.56-7.52-5.3-10.37-6.37-4.67-10.12-5.73c-7.54-2.13-15.86-1.75-23.52-.51C31.81,5.53,17.34,13.23,6.86,24.51c-1.28,1.37-2.48,2.81-3.64,4.29-.99,1.28-1.24,3,0,4.24,1.04,1.04,3.24,1.29,4.24,0h0Z"/>
    <path d="M420.13,109.19c1.83,9.43,3.84,19.36,2.07,28.96-1.41,7.66-5.49,14.75-12.27,18.73-1.81,1.06-3.38,1.71-5.46,2.16-1.67,.37-3.89,.43-5.58,.12l1.79,4.41c2.59-4.59,5.17-9.19,7.76-13.78,1.9-3.38-3.11-6.28-5.18-3.03-3.87,6.09-7.09,12.52-9.75,19.22-.54,1.37,.61,3.49,2.1,3.69,6.82,.92,13.17,3.48,18.71,7.57,1.3,.96,3.35,.22,4.1-1.08,.89-1.53,.23-3.14-1.08-4.1-5.89-4.35-12.89-7.2-20.14-8.18l2.1,3.69c2.46-6.21,5.56-12.15,9.14-17.79l-5.18-3.03c-2.59,4.59-5.17,9.19-7.76,13.78-.88,1.56-.17,4.05,1.79,4.41,9.13,1.64,17.94-2.73,23.64-9.79,6.6-8.17,8.42-18.5,7.77-28.79-.4-6.32-1.58-12.56-2.78-18.77-.31-1.59-2.21-2.5-3.69-2.1-1.66,.46-2.41,2.09-2.1,3.69h0Z"/>
    <text class="cls-14" transform="translate(396.9 92.99)"><tspan x="0" y="0">y</tspan><tspan class="cls-2" x="20.16" y="0">o</tspan><tspan x="39.24" y="0">u</tspan></text>
    <path d="M7.74,31.87c-.04-8.24,.58-16.48,1.92-24.62l-5.89-.8c.54,4.01-.19,7.9-1.03,11.82C1.86,22.42,.97,26.57,.08,30.71c-.51,2.4,1.4,4.04,3.69,3.69,6.29-.96,12.9,.2,18.53,3.1,1.44,.74,3.26,.37,4.1-1.08,.79-1.34,.37-3.36-1.08-4.1-7.19-3.7-15.18-4.93-23.16-3.71l3.69,3.69c.92-4.3,1.84-8.6,2.75-12.91s1.72-8.6,1.14-12.94c-.2-1.48-.99-2.75-2.6-2.95-1.35-.16-3.05,.66-3.29,2.15C2.44,14.33,1.7,23.09,1.74,31.87c.02,3.86,6.02,3.87,6,0h0Z"/>
    <text class="cls-14" transform="translate(103.26 65.65)"><tspan x="0" y="0">y</tspan><tspan class="cls-2" x="20.16" y="0">o</tspan><tspan class="cls-11" x="39.24" y="0">u</tspan><tspan x="59.29" y="0">r d</tspan><tspan class="cls-1" x="101.77" y="0">e</tspan><tspan class="cls-9" x="119.59" y="0">c</tspan><tspan class="cls-13" x="137.3" y="0">k</tspan></text>
  </g>
</svg>